<svg width="31" height="30" viewBox="0 0 31 30" fill="none" xmlns="http://www.w3.org/2000/svg">
<path d="M3.09995 4.79999C2.93563 4.79774 2.77249 4.82711 2.62001 4.88641C2.46753 4.94571 2.32875 5.03374 2.21173 5.14539C2.09471 5.25705 2.00179 5.39009 1.93837 5.5368C1.87495 5.68351 1.84229 5.84096 1.84229 5.99999C1.84229 6.15902 1.87495 6.31646 1.93837 6.46317C2.00179 6.60988 2.09471 6.74292 2.21173 6.85458C2.32875 6.96623 2.46753 7.05426 2.62001 7.11356C2.77249 7.17286 2.93563 7.20223 3.09995 7.19999H27.8999C28.0643 7.20223 28.2274 7.17286 28.3799 7.11356C28.5324 7.05426 28.6711 6.96623 28.7882 6.85458C28.9052 6.74292 28.9981 6.60988 29.0615 6.46317C29.1249 6.31646 29.1576 6.15902 29.1576 5.99999C29.1576 5.84096 29.1249 5.68351 29.0615 5.5368C28.9981 5.39009 28.9052 5.25705 28.7882 5.14539C28.6711 5.03374 28.5324 4.94571 28.3799 4.88641C28.2274 4.82711 28.0643 4.79774 27.8999 4.79999H3.09995ZM3.09995 13.8C2.93563 13.7977 2.77249 13.8271 2.62001 13.8864C2.46753 13.9457 2.32875 14.0337 2.21173 14.1454C2.09471 14.257 2.00179 14.3901 1.93837 14.5368C1.87495 14.6835 1.84229 14.841 1.84229 15C1.84229 15.159 1.87495 15.3165 1.93837 15.4632C2.00179 15.6099 2.09471 15.7429 2.21173 15.8546C2.32875 15.9662 2.46753 16.0543 2.62001 16.1136C2.77249 16.1729 2.93563 16.2022 3.09995 16.2H27.8999C28.0643 16.2022 28.2274 16.1729 28.3799 16.1136C28.5324 16.0543 28.6711 15.9662 28.7882 15.8546C28.9052 15.7429 28.9981 15.6099 29.0615 15.4632C29.1249 15.3165 29.1576 15.159 29.1576 15C29.1576 14.841 29.1249 14.6835 29.0615 14.5368C28.9981 14.3901 28.9052 14.257 28.7882 14.1454C28.6711 14.0337 28.5324 13.9457 28.3799 13.8864C28.2274 13.8271 28.0643 13.7977 27.8999 13.8H3.09995ZM3.09995 22.8C2.93563 22.7977 2.77249 22.8271 2.62001 22.8864C2.46753 22.9457 2.32875 23.0337 2.21173 23.1454C2.09471 23.257 2.00179 23.3901 1.93837 23.5368C1.87495 23.6835 1.84229 23.841 1.84229 24C1.84229 24.159 1.87495 24.3165 1.93837 24.4632C2.00179 24.6099 2.09471 24.7429 2.21173 24.8546C2.32875 24.9662 2.46753 25.0543 2.62001 25.1136C2.77249 25.1729 2.93563 25.2022 3.09995 25.2H27.8999C28.0643 25.2022 28.2274 25.1729 28.3799 25.1136C28.5324 25.0543 28.6711 24.9662 28.7882 24.8546C28.9052 24.7429 28.9981 24.6099 29.0615 24.4632C29.1249 24.3165 29.1576 24.159 29.1576 24C29.1576 23.841 29.1249 23.6835 29.0615 23.5368C28.9981 23.3901 28.9052 23.257 28.7882 23.1454C28.6711 23.0337 28.5324 22.9457 28.3799 22.8864C28.2274 22.8271 28.0643 22.7977 27.8999 22.8H3.09995Z" fill="white"/>
</svg>
