<svg width="27" height="27" viewBox="0 0 27 27" fill="none" xmlns="http://www.w3.org/2000/svg">
<path d="M1.53571 25.4643C1.89286 25.8214 2.25 26 2.78571 26C3.32143 26 3.67857 25.8214 4.03571 25.4643L13.5 16L22.9643 25.4643C23.3214 25.8214 23.8571 26 24.2143 26C24.5714 26 25.1071 25.8214 25.4643 25.4643C26.1786 24.75 26.1786 23.6786 25.4643 22.9643L16 13.5L25.4643 4.03571C26.1786 3.32143 26.1786 2.25 25.4643 1.53571C24.75 0.821429 23.6786 0.821429 22.9643 1.53571L13.5 11L4.03571 1.53571C3.32143 0.821429 2.25 0.821429 1.53571 1.53571C0.821429 2.25 0.821429 3.32143 1.53571 4.03571L11 13.5L1.53571 22.9643C0.821429 23.6786 0.821429 24.75 1.53571 25.4643Z" fill="white" stroke="black"/>
</svg>
